#!OML:ASF H:\GeneralSubjects\Female5\Project 1\Capture day 1\Session 1\Female5.ASF
:FULLY-SPECIFIED
:DEGREES
430
root -20.8273 15.6993 6.09797 -175.911 -33.0117 -169.892
lowerback 7.01029 4.18943 7.86915
upperback -10.2149 6.35619 0.341029
thorax -14.4567 1.92852 -5.11287
lowerneck -13.4352 8.11323 10.4809
upperneck 38.3311 7.55479 -2.22249
head 16.6797 3.50079 -1.69637
rclavicle 1.20662e-013 1.66979e-014
rhumerus -43.595 29.5775 -98.3656
rradius 28.9704
rwrist -15.1436
rhand -18.1344 -15.6063
rfingers 7.12502
rthumb 8.14062 -45.4295
lclavicle 1.20662e-013 1.66979e-014
lhumerus -48.5837 3.39869 65.0018
lradius 17.0049
lwrist -21.8712
lhand -26.2816 36.6112
lfingers 7.12502
lthumb 0.273723 66.5908
rfemur 7.97167 7.47282 44.0095
rtibia -11.4103
rfoot -18.9769 -7.40617
rtoes 11.0842
lfemur -35.9866 -2.54193 -8.50334
ltibia 19.0334
lfoot -16.4802 24.9461
ltoes -59.5717
431
root -20.8061 15.6673 6.08103 -175.898 -32.3528 -169.742
lowerback 6.84761 4.24999 8.09272
upperback -10.1623 6.45724 0.471336
thorax -14.2702 1.97154 -5.08722
lowerneck -13.3723 8.33611 10.736
upperneck 37.8427 8.20185 -2.99633
head 16.5253 3.71983 -1.94904
rclavicle -1.54555e-013 -7.07673e-014
rhumerus -43.7309 30.9046 -98.9149
rradius 28.5447
rwrist -15.7147
rhand -18.9179 -16.9049
rfingers 7.12502
rthumb 7.38442 -46.7561
lclavicle -1.54555e-013 -7.07673e-014
lhumerus -49.2626 2.09701 65.6245
lradius 17.6414
lwrist -19.6723
lhand -26.1499 36.5109
lfingers 7.12502
lthumb 0.400939 66.4902
rfemur 8.10251 7.74337 44.2176
rtibia -11.5629
rfoot -18.5925 -7.21174
rtoes 10.1245
lfemur -36.4644 -0.817429 -8.46655
ltibia 20.2128
lfoot -15.9544 24.1849
ltoes -59.1609
432
root -20.7872 15.636 6.06622 -175.915 -31.8035 -169.583
lowerback 6.77457 4.25537 8.30988
upperback -10.1059 6.49652 0.652822
thorax -14.1528 1.98496 -4.99994
lowerneck -13.3073 8.58499 10.955
upperneck 37.4505 8.84252 -3.68418
head 16.4255 3.93853 -2.15835
rclavicle 6.5102e-015 1.23246e-014
rhumerus -43.6859 31.9254 -99.1246
rradius 27.9327
rwrist -16.2027
rhand -20.1977 -17.8931
rfingers 7.12502
rthumb 6.14893 -47.7839
lclavicle 6.5102e-015 1.23246e-014
lhumerus -49.8471 0.913231 66.4691
lradius 18.1506
lwrist -17.7639
lhand -26.0916 36.5091
lfingers 7.12502
lthumb 0.457296 66.4883
rfemur 8.2562 7.88919 44.3766
rtibia -11.7509
rfoot -18.2056 -6.99223
rtoes 8.84789
lfemur -37.0038 0.788195 -8.44151
ltibia 21.4794
lfoot -15.575 23.4259
ltoes -58.6681
433
root -20.7714 15.6081 6.05309 -175.974 -31.3586 -169.432
lowerback 6.79747 4.20731 8.51308
upperback -10.0394 6.47646 0.875713
thorax -14.0999 1.97077 -4.85897
lowerneck -13.2189 8.84825 11.1394
upperneck 37.1279 9.46567 -4.28324
head 16.3565 4.15404 -2.32678
rclavicle -6.12257e-014 -4.77083e-014
rhumerus -43.4297 32.4884 -98.898
rradius 27.1944
rwrist -16.2935
rhand -21.6812 -18.6853
rfingers 7.12502
rthumb 4.71665 -48.6128
lclavicle -6.12257e-014 -4.77083e-014
lhumerus -50.3077 -0.0919848 67.4673
lradius 18.503
lwrist -16.2786
lhand -26.0323 36.5635
lfingers 7.12502
lthumb 0.514583 66.5427
rfemur 8.4581 7.90424 44.4664
rtibia -11.9932
rfoot -17.8149 -6.71181
rtoes 7.69778
lfemur -37.5246 2.10384 -8.38253
ltibia 22.7425
lfoot -15.4913 22.7339
ltoes -58.2682
434
root -20.7588 15.5857 6.03991 -176.068 -30.9893 -169.295
lowerback 6.89751 4.12465 8.69981
upperback -9.96349 6.41876 1.1164
thorax -14.0943 1.93921 -4.69046
lowerneck -13.1006 9.10177 11.2987
upperneck 36.8499 10.0332 -4.78289
head 16.2964 4.35475 -2.45892
rclavicle -3.13086e-014 -2.32578e-014
rhumerus -42.952 32.466 -98.1995
rradius 26.4033
rwrist -15.8766
rhand -23.1236 -19.5745
rfingers 7.12502
rthumb 3.32377 -49.5283
lclavicle -3.13086e-014 -2.32578e-014
lhumerus -50.6125 -0.894942 68.539
lradius 18.7022
lwrist -15.3233
lhand -25.9377 36.6325
lfingers 7.12502
lthumb 0.605944 66.6114
rfemur 8.67056 7.82311 44.5086
rtibia -12.2073
rfoot -17.4574 -6.3592
rtoes 7.03578
lfemur -37.9608 3.03583 -8.25142
ltibia 23.8981
lfoot -15.6041 22.2564
ltoes -58.0768
435
root -20.7496 15.5701 6.02426 -176.174 -30.6649 -169.187
lowerback 7.04318 4.03068 8.85684
upperback -9.88578 6.3473 1.34626
thorax -14.1187 1.90218 -4.51957
lowerneck -12.9779 9.3164 11.4508
upperneck 36.6244 10.4898 -5.16878
head 16.2464 4.52209 -2.5622
rclavicle -4.30617e-014 2.74323e-014
rhumerus -42.3171 31.8476 -97.1078
rradius 25.649
rwrist -15.136
rhand -24.4032 -20.6116
rfingers 7.12502
rthumb 2.08794 -50.5811
lclavicle -4.30617e-014 2.74323e-014
lhumerus -50.7393 -1.51275 69.6201
lradius 18.7711
lwrist -14.9277
lhand -25.806 36.7322
lfingers 7.12502
lthumb 0.733071 66.7107
rfemur 8.85202 7.6865 44.5174
rtibia -12.3281
rfoot -17.1496 -5.96131
rtoes 7.04285
lfemur -38.2702 3.53945 -8.03699
ltibia 24.8546
lfoot -15.7101 22.1914
ltoes -58.44
436
root -20.7433 15.5618 6.00378 -176.271 -30.3636 -169.106
lowerback 7.19721 3.94004 8.97187
upperback -9.81219 6.27402 1.54642
thorax -14.1535 1.86656 -4.35902
lowerneck -12.8761 9.47662 11.6121
upperneck 36.4559 10.8016 -5.42494
head 16.2081 4.64627 -2.63861
rclavicle 5.85172e-014 1.81888e-014
rhumerus -41.651 30.7384 -95.7812
rradius 25.0245
rwrist -14.3904
rhand -25.459 -21.6722
rfingers 7.12502
rthumb 1.06823 -51.6493
lclavicle 5.85172e-014 1.81888e-014
lhumerus -50.679 -1.95992 70.6531
lradius 18.74
lwrist -15.053
lhand -25.5995 36.8443
lfingers 7.12502
lthumb 0.932524 66.822
rfemur 9.00087 7.52843 44.5225
rtibia -12.3723
rfoot -16.8719 -5.57052
rtoes 7.58451
lfemur -38.4515 3.61306 -7.73791
ltibia 25.5718
lfoot -15.6836 22.6544
ltoes -59.1961
437
root -20.7392 15.5602 5.97707 -176.323 -30.0672 -169.07
lowerback 7.32811 3.86056 9.01144
upperback -9.74737 6.19968 1.70288
thorax -14.1849 1.83635 -4.20377
lowerneck -12.8075 9.57979 11.8122
upperneck 36.322 10.9664 -5.57059
head 16.1741 4.72885 -2.70106
rclavicle -2.1183e-014 -4.17448e-015
rhumerus -41.0988 29.3312 -94.405
rradius 24.6119
rwrist -13.9846
rhand -26.2589 -22.6536
rfingers 7.12502
rthumb 0.295666 -52.6331
lclavicle -2.1183e-014 -4.17448e-015
lhumerus -50.437 -2.28736 71.6311
lradius 18.6514
lwrist -15.5564
lhand -25.3296 36.8849
lfingers 7.12502
lthumb 1.19328 66.8613
rfemur 9.09356 7.37966 44.5251
rtibia -12.3276
rfoot -16.6329 -5.22382
rtoes 8.23104
lfemur -38.5602 3.3135 -7.40523
ltibia 26.0916
lfoot -15.521 23.6287
ltoes -60.2713
438
root -20.7367 15.5645 5.94421 -176.288 -29.7717 -169.117
lowerback 7.41916 3.7951 8.94002
upperback -9.69348 6.12025 1.8027
thorax -14.2064 1.81333 -4.04713
lowerneck -12.7831 9.63092 12.0574
upperneck 36.1966 10.9982 -5.62011
head 16.1357 4.7758 -2.75289
rclavicle 5.94428e-014 -4.67144e-015
rhumerus -40.7792 27.8554 -93.1363
rradius 24.4477
rwrist -14.2065
rhand -26.8845 -23.5708
rfingers 7.12502
rthumb -0.308554 -53.5503
lclavicle 5.94428e-014 -4.67144e-015
lhumerus -50.0314 -2.60419 72.6189
lradius 18.5737
lwrist -16.1787
lhand -25.042 36.8357
lfingers 7.12502
lthumb 1.47097 66.8104
rfemur 9.11062 7.25445 44.5085
rtibia -12.1816
rfoot -16.4574 -4.92683
rtoes 8.64381
lfemur -38.6891 2.71348 -7.12622
ltibia 26.523
lfoot -15.3447 25.0178
ltoes -61.1841
